<svg width="640" height="420" viewBox="0 0 640 420" fill="none" xmlns="http://www.w3.org/2000/svg">
  <rect width="640" height="420" rx="36" fill="url(#bg)"/>
  <rect x="48" y="54" width="544" height="312" rx="28" fill="white" fill-opacity="0.84"/>
  <rect x="82" y="88" width="222" height="236" rx="24" fill="#F8FAFC"/>
  <rect x="110" y="116" width="122" height="14" rx="7" fill="#0F172A"/>
  <rect x="110" y="146" width="162" height="10" rx="5" fill="#CBD5E1"/>
  <rect x="110" y="168" width="144" height="10" rx="5" fill="#CBD5E1"/>
  <rect x="110" y="204" width="166" height="92" rx="18" fill="#DBEAFE"/>
  <path d="M130 266L160 236L186 250L222 218L256 236" stroke="#174EA6" stroke-width="10" stroke-linecap="round" stroke-linejoin="round"/>
  <circle cx="130" cy="266" r="8" fill="#174EA6"/>
  <circle cx="160" cy="236" r="8" fill="#2DD4BF"/>
  <circle cx="186" cy="250" r="8" fill="#174EA6"/>
  <circle cx="222" cy="218" r="8" fill="#2DD4BF"/>
  <circle cx="256" cy="236" r="8" fill="#174EA6"/>
  <rect x="332" y="88" width="226" height="114" rx="24" fill="#0F172A"/>
  <rect x="360" y="118" width="110" height="12" rx="6" fill="#F8FAFC"/>
  <rect x="360" y="142" width="80" height="10" rx="5" fill="#94A3B8"/>
  <rect x="332" y="224" width="226" height="100" rx="24" fill="#EFF6FF"/>
  <rect x="360" y="252" width="168" height="14" rx="7" fill="#174EA6"/>
  <rect x="360" y="280" width="142" height="10" rx="5" fill="#94A3B8"/>
  <circle cx="520" cy="130" r="22" fill="#2DD4BF"/>
  <path d="M520 120V140M510 130H530" stroke="#0F172A" stroke-width="7" stroke-linecap="round"/>
  <defs>
    <linearGradient id="bg" x1="25" y1="19" x2="598" y2="386" gradientUnits="userSpaceOnUse">
      <stop stop-color="#EEF2FF"/>
      <stop offset="1" stop-color="#ECFEFF"/>
    </linearGradient>
  </defs>
</svg>
