<svg width="640" height="420" viewBox="0 0 640 420" fill="none" xmlns="http://www.w3.org/2000/svg">
  <rect width="640" height="420" rx="36" fill="url(#bg)"/>
  <rect x="46" y="52" width="548" height="316" rx="28" fill="white" fill-opacity="0.82"/>
  <rect x="82" y="88" width="180" height="244" rx="24" fill="#0F172A"/>
  <rect x="108" y="118" width="128" height="18" rx="9" fill="#F8FAFC"/>
  <rect x="108" y="152" width="84" height="12" rx="6" fill="#94A3B8"/>
  <rect x="108" y="198" width="52" height="104" rx="18" fill="#174EA6"/>
  <rect x="174" y="174" width="62" height="128" rx="18" fill="#2DD4BF"/>
  <rect x="292" y="88" width="266" height="72" rx="22" fill="#EFF6FF"/>
  <rect x="320" y="112" width="126" height="12" rx="6" fill="#174EA6"/>
  <rect x="320" y="136" width="174" height="10" rx="5" fill="#94A3B8"/>
  <rect x="292" y="182" width="266" height="150" rx="22" fill="#F8FAFC"/>
  <rect x="320" y="212" width="210" height="14" rx="7" fill="#0F172A"/>
  <rect x="320" y="242" width="180" height="10" rx="5" fill="#CBD5E1"/>
  <rect x="320" y="264" width="162" height="10" rx="5" fill="#CBD5E1"/>
  <rect x="320" y="286" width="126" height="10" rx="5" fill="#CBD5E1"/>
  <circle cx="525" cy="264" r="24" fill="#DBEAFE"/>
  <path d="M513 264L521 272L538 255" stroke="#174EA6" stroke-width="8" stroke-linecap="round" stroke-linejoin="round"/>
  <defs>
    <linearGradient id="bg" x1="27" y1="18" x2="587" y2="395" gradientUnits="userSpaceOnUse">
      <stop stop-color="#F8FAFC"/>
      <stop offset="1" stop-color="#ECFEFF"/>
    </linearGradient>
  </defs>
</svg>
